PathFileType	4	(X/Y/Z)	C:\Users\86182\Documents\cortex\Trimmed_M4_H10.trc
DataRate	CameraRate	NumFrames	NumMarkers	Units	OrigDataRate	OrigDataStartFrame	OrigNumFrames
100.00	100.00	       154	2	mm	100.00	721	       901
Frame#	Time	gripper			box			
		X1	Y1	Z1	X2	Y2	Z2	

721	7.200	276.15042	151.11630	292.26495	278.46997	147.75684	155.55145	
722	7.210	276.14868	151.11696	292.26501	278.46588	147.75742	155.55182	
723	7.220	276.14713	151.11765	292.26492	278.46307	147.75746	155.55202	
724	7.230	276.14551	151.11824	292.26501	278.46136	147.75734	155.55215	
725	7.240	276.14343	151.11880	292.26556	278.46021	147.75748	155.55243	
726	7.250	276.14044	151.11948	292.26660	278.45914	147.75797	155.55292	
727	7.260	276.13657	151.12042	292.26779	278.45801	147.75850	155.55357	
728	7.270	276.13232	151.12173	292.26855	278.45648	147.75888	155.55435	
729	7.280	276.12833	151.12332	292.26859	278.45398	147.75923	155.55536	
730	7.290	276.12521	151.12491	292.26791	278.45020	147.75990	155.55667	
731	7.300	276.12332	151.12624	292.26678	278.44537	147.76128	155.55832	
732	7.310	276.12271	151.12711	292.26553	278.44034	147.76346	155.56009	
733	7.320	276.12317	151.12750	292.26437	278.43610	147.76602	155.56168	
734	7.330	276.12408	151.12755	292.26355	278.43314	147.76837	155.56284	
735	7.340	276.12491	151.12732	292.26334	278.43152	147.77010	155.56360	
736	7.350	276.12515	151.12691	292.26398	278.43094	147.77107	155.56406	
737	7.360	276.12466	151.12637	292.26538	278.43097	147.77138	155.56433	
738	7.370	276.12375	151.12585	292.26715	278.43112	147.77121	155.56459	
739	7.380	276.12265	151.12549	292.26871	278.43112	147.77075	155.56482	
740	7.390	276.12149	151.12549	292.26965	278.43097	147.77020	155.56497	
741	7.400	276.12024	151.12590	292.26984	278.43073	147.76981	155.56494	
742	7.410	276.11893	151.12662	292.26947	278.43015	147.76979	155.56483	
743	7.420	276.11792	151.12738	292.26874	278.42896	147.77026	155.56485	
744	7.430	276.11765	151.12796	292.26782	278.42694	147.77122	155.56509	
745	7.440	276.11850	151.12817	292.26672	278.42422	147.77257	155.56561	
746	7.450	276.12061	151.12787	292.26563	278.42117	147.77412	155.56635	
747	7.460	276.12372	151.12703	292.26483	278.41827	147.77571	155.56720	
748	7.470	276.12726	151.12581	292.26447	278.41599	147.77710	155.56802	
749	7.480	276.13062	151.12451	292.26437	278.41464	147.77812	155.56857	
750	7.490	276.13333	151.12343	292.26437	278.41443	147.77864	155.56879	
751	7.500	276.13531	151.12262	292.26440	278.41534	147.77864	155.56863	
752	7.510	276.13687	151.12202	292.26434	278.41727	147.77814	155.56815	
753	7.520	276.13818	151.12152	292.26431	278.41998	147.77724	155.56743	
754	7.530	276.13931	151.12106	292.26431	278.42325	147.77605	155.56659	
755	7.540	276.14050	151.12061	292.26428	278.42667	147.77470	155.56573	
756	7.550	276.14221	151.12003	292.26404	278.42981	147.77338	155.56500	
757	7.560	276.14481	151.11928	292.26349	278.43240	147.77223	155.56447	
758	7.570	276.14810	151.11841	292.26260	278.43436	147.77133	155.56409	
759	7.580	276.15140	151.11760	292.26160	278.43588	147.77071	155.56372	
760	7.590	276.15384	151.11703	292.26077	278.43716	147.77029	155.56326	
761	7.600	276.15479	151.11681	292.26047	278.43829	147.77008	155.56274	
762	7.610	276.15411	151.11693	292.26074	278.43906	147.77005	155.56223	
763	7.620	276.15192	151.11737	292.26160	278.43915	147.77025	155.56192	
764	7.630	276.14853	151.11809	292.26288	278.43854	147.77068	155.56186	
765	7.640	276.14435	151.11896	292.26447	278.43753	147.77119	155.56195	
766	7.650	276.13989	151.11984	292.26624	278.43665	147.77162	155.56204	
767	7.660	276.13583	151.12054	292.26807	278.43628	147.77182	155.56203	
768	7.670	276.13278	151.12099	292.26962	278.43680	147.77162	155.56180	
769	7.680	276.13098	151.12114	292.27075	278.43851	147.77094	155.56128	
770	7.690	276.13025	151.12109	292.27142	278.44150	147.76974	155.56041	
771	7.700	276.13013	151.12093	292.27185	278.44559	147.76813	155.55923	
772	7.710	276.13040	151.12077	292.27191	278.45007	147.76627	155.55795	
773	7.720	276.13101	151.12074	292.27148	278.45422	147.76436	155.55670	
774	7.730	276.13184	151.12091	292.27051	278.45740	147.76260	155.55573	
775	7.740	276.13275	151.12126	292.26910	278.45917	147.76117	155.55511	
776	7.750	276.13373	151.12161	292.26764	278.45938	147.76022	155.55493	
777	7.760	276.13480	151.12180	292.26642	278.45822	147.75984	155.55515	
778	7.770	276.13583	151.12177	292.26566	278.45612	147.76007	155.55566	
779	7.780	276.13660	151.12164	292.26532	278.45331	147.76100	155.55646	
780	7.790	276.13684	151.12157	292.26526	278.44974	147.76271	155.55765	
781	7.800	276.13666	151.12161	292.26532	278.44525	147.76505	155.55927	
782	7.810	276.13657	151.12164	292.26532	278.43988	147.76772	155.56122	
783	7.820	276.13718	151.12154	292.26508	278.43408	147.77037	155.56325	
784	7.830	276.13852	151.12134	292.26440	278.42896	147.77257	155.56499	
785	7.840	276.14023	151.12120	292.26331	278.42554	147.77396	155.56610	
786	7.850	276.14236	151.12111	292.26184	278.42438	147.77437	155.56644	
787	7.860	276.14532	151.12088	292.25995	278.42554	147.77380	155.56601	
788	7.870	276.14902	151.12041	292.25790	278.42862	147.77242	155.56500	
789	7.880	276.15295	151.11967	292.25626	278.43301	147.77051	155.56357	
790	7.890	276.15637	151.11874	292.25537	278.43823	147.76839	155.56186	
791	7.900	276.15884	151.11774	292.25543	278.44397	147.76633	155.56003	
792	7.910	276.16037	151.11670	292.25626	278.44962	147.76459	155.55829	
793	7.920	276.16107	151.11569	292.25772	278.45438	147.76332	155.55695	
794	7.930	276.16092	151.11481	292.25961	278.45743	147.76262	155.55627	
795	7.940	276.15994	151.11415	292.26166	278.45840	147.76250	155.55630	
796	7.950	276.15842	151.11378	292.26361	278.45737	147.76295	155.55701	
797	7.960	276.15671	151.11369	292.26520	278.45459	147.76392	155.55817	
798	7.970	276.15512	151.11385	292.26611	278.45071	147.76526	155.55954	
799	7.980	276.15390	151.11424	292.26633	278.44659	147.76677	155.56079	
800	7.990	276.15305	151.11478	292.26593	278.44296	147.76817	155.56175	
801	8.000	276.15244	151.11542	292.26514	278.44012	147.76936	155.56241	
802	8.010	276.15182	151.11620	292.26404	278.43781	147.77034	155.56287	
803	8.020	276.15103	151.11714	292.26279	278.43561	147.77127	155.56332	
804	8.030	276.14981	151.11816	292.26175	278.43317	147.77226	155.56384	
805	8.040	276.14804	151.11913	292.26126	278.43063	147.77327	155.56445	
806	8.050	276.14545	151.12004	292.26147	278.42838	147.77415	155.56500	
807	8.060	276.14200	151.12099	292.26233	278.42709	147.77467	155.56531	
808	8.070	276.13791	151.12199	292.26355	278.42706	147.77473	155.56525	
809	8.080	276.13394	151.12294	292.26486	278.42810	147.77441	155.56490	
810	8.090	276.13101	151.12357	292.26593	278.42963	147.77390	155.56441	
811	8.100	276.12994	151.12366	292.26660	278.43118	147.77338	155.56393	
812	8.110	276.13092	151.12314	292.26685	278.43228	147.77301	155.56360	
813	8.120	276.13342	151.12209	292.26697	278.43286	147.77283	155.56342	
814	8.130	276.13635	151.12077	292.26721	278.43286	147.77281	155.56342	
815	8.140	276.13882	151.11949	292.26782	278.43253	147.77292	155.56354	
816	8.150	276.14038	151.11848	292.26862	278.43201	147.77307	155.56375	
817	8.160	276.14117	151.11787	292.26917	278.43137	147.77322	155.56400	
818	8.170	276.14166	151.11761	292.26932	278.43057	147.77341	155.56430	
819	8.180	276.14209	151.11760	292.26901	278.42972	147.77356	155.56467	
820	8.190	276.14252	151.11768	292.26849	278.42905	147.77361	155.56494	
821	8.200	276.14313	151.11769	292.26801	278.42896	147.77339	155.56506	
822	8.210	276.14423	151.11749	292.26752	278.42963	147.77284	155.56500	
823	8.220	276.14587	151.11707	292.26703	278.43085	147.77205	155.56477	
824	8.230	276.14783	151.11646	292.26669	278.43222	147.77127	155.56451	
825	8.240	276.14972	151.11580	292.26648	278.43311	147.77077	155.56439	
826	8.250	276.15125	151.11528	292.26630	278.43317	147.77069	155.56453	
827	8.260	276.15198	151.11511	292.26605	278.43237	147.77101	155.56491	
828	8.270	276.15152	151.11537	292.26593	278.43112	147.77155	155.56543	
829	8.280	276.14966	151.11607	292.26599	278.42990	147.77209	155.56580	
830	8.290	276.14676	151.11719	292.26611	278.42935	147.77245	155.56586	
831	8.300	276.14328	151.11859	292.26605	278.42972	147.77251	155.56546	
832	8.310	276.13983	151.12016	292.26569	278.43088	147.77228	155.56473	
833	8.320	276.13681	151.12172	292.26498	278.43256	147.77177	155.56384	
834	8.330	276.13498	151.12296	292.26401	278.43445	147.77109	155.56302	
835	8.340	276.13510	151.12350	292.26279	278.43616	147.77037	155.56238	
836	8.350	276.13760	151.12320	292.26144	278.43732	147.76981	155.56207	
837	8.360	276.14182	151.12210	292.26025	278.43768	147.76950	155.56216	
838	8.370	276.14648	151.12053	292.25970	278.43726	147.76947	155.56253	
839	8.380	276.15036	151.11877	292.26010	278.43610	147.76976	155.56311	
840	8.390	276.15295	151.11711	292.26135	278.43445	147.77032	155.56375	
841	8.400	276.15433	151.11575	292.26294	278.43265	147.77098	155.56436	
842	8.410	276.15457	151.11491	292.26443	278.43094	147.77150	155.56488	
843	8.420	276.15375	151.11470	292.26550	278.42947	147.77173	155.56537	
844	8.430	276.15189	151.11511	292.26617	278.42834	147.77162	155.56577	
845	8.440	276.14914	151.11592	292.26672	278.42770	147.77119	155.56604	
846	8.450	276.14609	151.11685	292.26733	278.42786	147.77061	155.56601	
847	8.460	276.14343	151.11766	292.26779	278.42899	147.77016	155.56554	
848	8.470	276.14175	151.11824	292.26797	278.43097	147.77002	155.56464	
849	8.480	276.14127	151.11855	292.26776	278.43350	147.77010	155.56345	
850	8.490	276.14197	151.11855	292.26721	278.43634	147.77020	155.56216	
851	8.500	276.14380	151.11826	292.26633	278.43909	147.77019	155.56100	
852	8.510	276.14664	151.11768	292.26520	278.44159	147.76997	155.56009	
853	8.520	276.15002	151.11697	292.26392	278.44385	147.76947	155.55945	
854	8.530	276.15317	151.11636	292.26263	278.44611	147.76866	155.55896	
855	8.540	276.15533	151.11604	292.26154	278.44812	147.76767	155.55861	
856	8.550	276.15613	151.11606	292.26089	278.44965	147.76666	155.55843	
857	8.560	276.15530	151.11644	292.26080	278.45044	147.76573	155.55844	
858	8.570	276.15280	151.11717	292.26135	278.45026	147.76498	155.55875	
859	8.580	276.14877	151.11823	292.26245	278.44882	147.76453	155.55951	
860	8.590	276.14377	151.11942	292.26404	278.44601	147.76454	155.56073	
861	8.600	276.13858	151.12054	292.26590	278.44196	147.76511	155.56244	
862	8.610	276.13406	151.12137	292.26785	278.43701	147.76627	155.56448	
863	8.620	276.13095	151.12178	292.26947	278.43176	147.76773	155.56662	
864	8.630	276.12991	151.12169	292.27051	278.42706	147.76913	155.56854	
865	8.640	276.13104	151.12114	292.27072	278.42389	147.77019	155.56982	
866	8.650	276.13391	151.12027	292.27014	278.42273	147.77089	155.57018	
867	8.660	276.13809	151.11923	292.26892	278.42355	147.77136	155.56955	
868	8.670	276.14294	151.11807	292.26733	278.42596	147.77159	155.56818	
869	8.680	276.14780	151.11691	292.26581	278.42938	147.77151	155.56638	
870	8.690	276.15170	151.11598	292.26456	278.43329	147.77113	155.56451	
871	8.700	276.15417	151.11549	292.26361	278.43738	147.77045	155.56277	
872	8.710	276.15512	151.11549	292.26282	278.44131	147.76958	155.56122	
873	8.720	276.15497	151.11584	292.26227	278.44470	147.76866	155.55997	
874	8.730	276.15424	151.11629	292.26196	278.44720	147.76793	155.55914	
